
  <svg
    width="1000"
    height="1000"
    viewBox="0 0 1000 1000"
    xmlns="http://www.w3.org/2000/svg"
  >
    <defs>
      
      
      
      
      
      <pattern
        id="pattern"
        patternUnits="userSpaceOnUse"
        width="50"
        height="50"
        viewBox="0 0 100 100"
        fill="#e6e6e6"
      >
        <line
          x1="50"
          y1="0"
          x2="50"
          y2="100"
          stroke="#e6e6e6"
          stroke-width="10"
        />
        <line
          x1="0"
          y1="50"
          x2="100"
          y2="50"
          stroke="#e6e6e6"
          stroke-width="10"
        />
      </pattern>
      
      <clipPath id="shape">
        <path fill="currentColor" d="M827,648.5Q737,797,572,853.5Q407,910,281,788Q155,666,114.5,480.5Q74,295,244.5,210.5Q415,126,592,144.5Q769,163,843,331.5Q917,500,827,648.5Z"></path>
      </clipPath>
    </defs>
  
    

    <g  clip-path="url(#shape)">
      <path fill="url(#pattern)" d="M827,648.5Q737,797,572,853.5Q407,910,281,788Q155,666,114.5,480.5Q74,295,244.5,210.5Q415,126,592,144.5Q769,163,843,331.5Q917,500,827,648.5Z" />
    </g>

    
  
  </svg>